<svg width="42" height="43" viewBox="0 0 42 43" fill="none" xmlns="http://www.w3.org/2000/svg">
<rect y="0.467285" width="42" height="42" rx="21" fill="#F8FAFC"/>
<path d="M32.7746 27.3058V27.3085L20.9984 34.081L20.9653 34.0617L20.9984 34.0755L32.7746 27.3058Z" fill="#171717"/>
<path d="M30.1262 8.09137L27.2236 6.42163V12.4294L20.9986 8.85334L14.7764 12.4294L9.22522 15.6286V33.319L11.8737 34.843L14.7764 36.5127V30.5049L20.9653 34.0617L20.9986 34.0617L32.7747 27.292V9.61257L30.1262 8.09137ZM14.7764 24.4752V18.4619L20.9986 14.8859L27.2236 18.4619V24.4724L20.9986 28.0485L14.7764 24.4752Z" fill="#171717"/>
<path d="M20.9986 8.85334V8.85613L9.22522 15.6286V15.6231L20.9986 8.85334Z" fill="#171717"/>
<path d="M32.7747 9.60966L32.7747 9.61257L30.1262 8.09137V8.08571L32.7747 9.60966Z" fill="#171717"/>
<path d="M11.8737 34.843L11.8737 34.8456L9.22522 33.3244V33.319L11.8737 34.843Z" fill="#171717"/>
</svg>
