<svg width="32" height="32" viewBox="0 0 32 32" fill="none" xmlns="http://www.w3.org/2000/svg">
<rect width="32" height="32" rx="16" fill="#171717"/>
<path d="M24.9712 20.4485V20.4506L15.9989 25.6105L15.9736 25.5959L15.9989 25.6064L24.9712 20.4485Z" fill="#F8FAFC"/>
<path d="M22.9534 5.80893L20.7419 4.53674V9.11408L15.999 6.38948L11.2582 9.11408L7.02881 11.5516V25.03L9.04673 26.1911L11.2582 27.4633V22.8859L15.9736 25.5959L15.999 25.5959L24.9713 20.438V6.96793L22.9534 5.80893ZM11.2582 18.2918V13.7103L15.999 10.9857L20.7419 13.7103V18.2897L15.999 21.0143L11.2582 18.2918Z" fill="#F8FAFC"/>
<path d="M15.999 6.38948V6.3916L7.02881 11.5516V11.5474L15.999 6.38948Z" fill="#F8FAFC"/>
<path d="M24.9713 6.96572L24.9713 6.96793L22.9534 5.80893V5.80461L24.9713 6.96572Z" fill="#F8FAFC"/>
<path d="M9.04673 26.1911L9.04673 26.1931L7.02881 25.0341V25.03L9.04673 26.1911Z" fill="#F8FAFC"/>
</svg>
